<svg data-v-70b83f88="" version="1.0" xmlns="http://www.w3.org/2000/svg" xmlns:xlink="http://www.w3.org/1999/xlink" width="600px" height="600px" viewBox="0 0 37.792173678583275 60" preserveAspectRatio="xMidYMid meet" color-interpolation-filters="sRGB"><g xmlns="http://www.w3.org/2000/svg"><g transform="translate(0,5)"><rect fill="#333333" fill-opacity="0" stroke-width="2" x="0" y="0" width="37.792173678583275" height="50" class="image-rect"/> <svg x="0" y="0" width="37.792173678583275" height="50" filtersec="colorsb4526026199"><svg xmlns="http://www.w3.org/2000/svg" viewBox="0 0 116.09 153.59"><defs><filter id="ac72cf1c6-a6de-491d-986a-d0d5a99617bd" x="6.07" y="6.07" width="110.02" height="147.52" filterUnits="userSpaceOnUse" color-interpolation-filters="sRGB"><feFlood flood-color="#fff" result="bg"/><feBlend in="SourceGraphic" in2="bg"/></filter><mask id="b522fef06-7d96-43a4-aca6-92185985619c" x="6.07" y="6.07" width="110.02" height="147.52" maskUnits="userSpaceOnUse"><path d="M80.13 89.12c11.58-8.83 18-21.42 18-35.49s-6.37-26.69-18-35.48c-10.25-7.79-24.07-12.08-39-12.08H6.07v129.51h30.38v-23.11l18.19 23.11h42.12L66.2 96.76a57.32 57.32 0 0 0 13.93-7.64zM56.91 66.55c-5 3.85-12.29 6.07-20.46 6.28v-38.4c8.17.21 15.41 2.43 20.46 6.25 4.48 3.42 6.75 7.79 6.75 13s-2.27 9.46-6.75 12.87z" filter="url(#ac72cf1c6-a6de-491d-986a-d0d5a99617bd)" fill="#000000"/></mask></defs><title>?? 43</title><g mask="url(#b522fef06-7d96-43a4-aca6-92185985619c)"><path d="M59 42.49a21.77 21.77 0 0 0-2.08-1.81c-5-3.82-12.29-6-20.46-6.25v38.4l18 18V52.44c8.17.22 15.41 2.43 20.46 6.25A20.61 20.61 0 0 1 77 60.5zM36.45 112.47v23.11H6.07l18.01 18.01h30.38v-23.11l-18.01-18.01z" fill="#333333"/><path d="M116.09 71.49v-.63-1.87-.63-.62-.61l-.06-.64c0-.21 0-.42-.08-.63l-.09-.64c0-.22-.06-.44-.1-.66s-.07-.43-.11-.65-.07-.43-.12-.65a2 2 0 0 0 0-.26v-.06c0-.12 0-.24-.07-.36l-.15-.68c0-.22-.1-.45-.16-.68s-.11-.48-.17-.71-.13-.48-.19-.71l-.21-.74a1.87 1.87 0 0 1-.07-.22v-.06l-.15-.48c-.08-.26-.16-.51-.25-.76s-.19-.55-.29-.83l-.3-.83-.36-.89a1.11 1.11 0 0 0-.07-.16v-.08l-.29-.68c-.15-.34-.3-.68-.46-1l-.85-1.07-.49-1a.75.75 0 0 1-.07-.12 1.09 1.09 0 0 0-.08-.15c-.26-.48-.53-1-.82-1.43-.37-.63-.76-1.25-1.16-1.85l-.07-.09c-.54-.81-1.15-1.58-1.75-2.36-.29-.39-.56-.79-.87-1.16a42.28 42.28 0 0 0-2.93-3.23l-.06-.08-18-18q1.59 1.61 3 3.31c.31.37.57.77.87 1.16.6.77 1.21 1.55 1.75 2.36.77 1.14 1.48 2.32 2.13 3.52L93 33a40 40 0 0 1 1.78 3.74v.07c.54 1.29 1 2.61 1.42 4v.06c.4 1.34.74 2.71 1 4.1V45c.28 1.4.48 2.82.62 4.25.14 1.45.21 2.91.21 4.39a44.39 44.39 0 0 1-.3 5.19 43.7 43.7 0 0 1-.88 5 41.82 41.82 0 0 1-1.45 4.82 41.93 41.93 0 0 1-2 4.61 42.76 42.76 0 0 1-2.52 4.33.25.25 0 0 0 0 .07 43.59 43.59 0 0 1-3 4l-.16.2c-.93 1.1-1.94 2.14-3 3.16l-1 .93a50.476 50.476 0 0 1-3.66 3.12 57.32 57.32 0 0 1-13.86 7.69l30.56 38.82H54.64l18 18h42.13l-30.56-38.8a57.31 57.31 0 0 0 13.93-7.65c1.29-1 2.5-2 3.66-3.12.34-.3.65-.62 1-.93s.77-.72 1.13-1.09c.53-.55 1-1.11 1.53-1.68.11-.13.21-.26.32-.38l.16-.2c.2-.24.41-.48.6-.72s.6-.75.88-1.13.5-.67.74-1 .43-.61.63-.92a2.14 2.14 0 0 1 .13-.19.43.43 0 0 0 0-.07c.14-.2.28-.41.41-.62s.34-.53.5-.8l.47-.79.42-.75.39-.72.33-.65c.11-.22.22-.44.32-.66s.22-.45.32-.67l.3-.66.27-.63c.09-.21.18-.43.26-.64s.17-.41.25-.62.15-.4.22-.61v-.07l.18-.52.21-.61c.06-.19.13-.39.19-.59l.18-.59.18-.59c0-.19.1-.38.16-.57l.15-.58c0-.2.1-.39.14-.58s0-.13 0-.19c0-.11 0-.23.08-.35l.12-.57.12-.58c0-.19.08-.38.11-.57s.07-.39.1-.58.07-.38.1-.57.06-.39.08-.58.06-.39.08-.58.05-.39.08-.58v-.05l.06-.53.06-.58v-.6-1.79-.62-1.23z" fill="#dd5b5e"/></g><path d="M74.06 83.05c11.58-8.83 18-21.42 18-35.49s-6.37-26.69-18-35.49C63.81 4.29 50 0 35.1 0H0v129.51h30.38V106.4l18.19 23.11h42.12L60.13 90.69a57.32 57.32 0 0 0 13.93-7.64zM50.84 60.48c-5.06 3.85-12.29 6.07-20.46 6.28v-38.4c8.17.21 15.4 2.43 20.46 6.25 4.48 3.42 6.75 7.79 6.75 13s-2.27 9.46-6.75 12.87z" fill="#2966cc"/></svg></svg> <!----></g></g></svg>